<svg width="301" height="301" viewBox="0 0 301 301" fill="none" xmlns="http://www.w3.org/2000/svg">
<rect width="301" height="301" rx="150.5" fill="#2F27CE"/>
<path d="M80.208 167H68.984C65.1507 167 62.2987 166.233 60.428 164.7C58.588 163.167 57.668 160.805 57.668 157.616V143.31C57.668 140.121 58.588 137.759 60.428 136.226C62.2987 134.662 65.1507 133.88 68.984 133.88H80.208C80.7907 133.88 81.2047 134.018 81.45 134.294C81.726 134.539 81.864 134.953 81.864 135.536V141.102C81.864 141.685 81.726 142.114 81.45 142.39C81.2047 142.635 80.7907 142.758 80.208 142.758H70.962C70.0113 142.758 69.306 142.957 68.846 143.356C68.386 143.724 68.156 144.291 68.156 145.058V156.006C68.156 156.773 68.386 157.34 68.846 157.708C69.306 158.045 70.0113 158.214 70.962 158.214H80.208C80.7907 158.214 81.2047 158.352 81.45 158.628C81.726 158.873 81.864 159.287 81.864 159.87V165.344C81.864 165.927 81.726 166.356 81.45 166.632C81.2047 166.877 80.7907 167 80.208 167ZM114.894 158.306C114.894 159.717 114.679 161.005 114.25 162.17C113.851 163.305 113.115 164.286 112.042 165.114C110.999 165.911 109.543 166.54 107.672 167C105.832 167.46 103.486 167.69 100.634 167.69C97.7822 167.69 95.4208 167.46 93.5502 167C91.6795 166.54 90.2075 165.911 89.1342 165.114C88.0915 164.286 87.3555 163.305 86.9262 162.17C86.5275 161.005 86.3282 159.717 86.3282 158.306V142.62C86.3282 141.209 86.5275 139.937 86.9262 138.802C87.3555 137.637 88.0915 136.64 89.1342 135.812C90.2075 134.984 91.6795 134.34 93.5502 133.88C95.4208 133.42 97.7822 133.19 100.634 133.19C103.486 133.19 105.832 133.42 107.672 133.88C109.543 134.34 110.999 134.984 112.042 135.812C113.115 136.64 113.851 137.637 114.25 138.802C114.679 139.937 114.894 141.209 114.894 142.62V158.306ZM96.7702 156.65C96.7702 157.263 97.0002 157.785 97.4602 158.214C97.9202 158.613 98.9782 158.812 100.634 158.812C102.29 158.812 103.348 158.613 103.808 158.214C104.268 157.785 104.498 157.263 104.498 156.65V144.276C104.498 143.693 104.268 143.203 103.808 142.804C103.348 142.375 102.29 142.16 100.634 142.16C98.9782 142.16 97.9202 142.375 97.4602 142.804C97.0002 143.203 96.7702 143.693 96.7702 144.276V156.65ZM137.908 167H122.406C121.824 167 121.394 166.877 121.118 166.632C120.873 166.356 120.75 165.927 120.75 165.344V135.536C120.75 134.953 120.873 134.539 121.118 134.294C121.394 134.018 121.824 133.88 122.406 133.88H137.908C141.742 133.88 144.578 134.647 146.418 136.18C148.289 137.713 149.224 140.075 149.224 143.264V157.616C149.224 160.805 148.289 163.167 146.418 164.7C144.578 166.233 141.742 167 137.908 167ZM131.192 142.666V158.306H136.666C137.402 158.306 137.939 158.122 138.276 157.754C138.644 157.386 138.828 156.819 138.828 156.052V144.874C138.828 144.107 138.644 143.555 138.276 143.218C137.939 142.85 137.402 142.666 136.666 142.666H131.192ZM172.228 167H156.726C156.144 167 155.714 166.877 155.438 166.632C155.193 166.356 155.07 165.927 155.07 165.344V135.536C155.07 134.953 155.193 134.539 155.438 134.294C155.714 134.018 156.144 133.88 156.726 133.88H172.228C176.062 133.88 178.898 134.647 180.738 136.18C182.609 137.713 183.544 140.075 183.544 143.264V157.616C183.544 160.805 182.609 163.167 180.738 164.7C178.898 166.233 176.062 167 172.228 167ZM165.512 142.666V158.306H170.986C171.722 158.306 172.259 158.122 172.596 157.754C172.964 157.386 173.148 156.819 173.148 156.052V144.874C173.148 144.107 172.964 143.555 172.596 143.218C172.259 142.85 171.722 142.666 170.986 142.666H165.512ZM190.311 167C189.728 167 189.299 166.877 189.023 166.632C188.777 166.356 188.655 165.927 188.655 165.344V159.87C188.655 159.287 188.777 158.873 189.023 158.628C189.299 158.352 189.728 158.214 190.311 158.214H194.865V142.758H190.311C189.728 142.758 189.299 142.635 189.023 142.39C188.777 142.114 188.655 141.685 188.655 141.102V135.536C188.655 134.953 188.777 134.539 189.023 134.294C189.299 134.018 189.728 133.88 190.311 133.88H209.907C210.489 133.88 210.903 134.018 211.149 134.294C211.425 134.539 211.563 134.953 211.563 135.536V141.102C211.563 141.685 211.425 142.114 211.149 142.39C210.903 142.635 210.489 142.758 209.907 142.758H205.445V158.214H209.907C210.489 158.214 210.903 158.352 211.149 158.628C211.425 158.873 211.563 159.287 211.563 159.87V165.344C211.563 165.927 211.425 166.356 211.149 166.632C210.903 166.877 210.489 167 209.907 167H190.311ZM232.882 167H225.43C224.848 167 224.418 166.877 224.142 166.632C223.897 166.356 223.774 165.927 223.774 165.344V142.758H217.012C216.43 142.758 216 142.635 215.724 142.39C215.479 142.114 215.356 141.685 215.356 141.102V135.536C215.356 134.953 215.479 134.539 215.724 134.294C216 134.018 216.43 133.88 217.012 133.88H241.3C241.883 133.88 242.297 134.018 242.542 134.294C242.818 134.539 242.956 134.953 242.956 135.536V141.102C242.956 141.685 242.818 142.114 242.542 142.39C242.297 142.635 241.883 142.758 241.3 142.758H234.538V165.344C234.538 165.927 234.4 166.356 234.124 166.632C233.879 166.877 233.465 167 232.882 167Z" fill="white"/>
<rect width="301" height="301" rx="150.5" fill="#2F27CE"/>
<path d="M80.208 167H68.984C65.1507 167 62.2987 166.233 60.428 164.7C58.588 163.167 57.668 160.805 57.668 157.616V143.31C57.668 140.121 58.588 137.759 60.428 136.226C62.2987 134.662 65.1507 133.88 68.984 133.88H80.208C80.7907 133.88 81.2047 134.018 81.45 134.294C81.726 134.539 81.864 134.953 81.864 135.536V141.102C81.864 141.685 81.726 142.114 81.45 142.39C81.2047 142.635 80.7907 142.758 80.208 142.758H70.962C70.0113 142.758 69.306 142.957 68.846 143.356C68.386 143.724 68.156 144.291 68.156 145.058V156.006C68.156 156.773 68.386 157.34 68.846 157.708C69.306 158.045 70.0113 158.214 70.962 158.214H80.208C80.7907 158.214 81.2047 158.352 81.45 158.628C81.726 158.873 81.864 159.287 81.864 159.87V165.344C81.864 165.927 81.726 166.356 81.45 166.632C81.2047 166.877 80.7907 167 80.208 167ZM114.894 158.306C114.894 159.717 114.679 161.005 114.25 162.17C113.851 163.305 113.115 164.286 112.042 165.114C110.999 165.911 109.543 166.54 107.672 167C105.832 167.46 103.486 167.69 100.634 167.69C97.7822 167.69 95.4208 167.46 93.5502 167C91.6795 166.54 90.2075 165.911 89.1342 165.114C88.0915 164.286 87.3555 163.305 86.9262 162.17C86.5275 161.005 86.3282 159.717 86.3282 158.306V142.62C86.3282 141.209 86.5275 139.937 86.9262 138.802C87.3555 137.637 88.0915 136.64 89.1342 135.812C90.2075 134.984 91.6795 134.34 93.5502 133.88C95.4208 133.42 97.7822 133.19 100.634 133.19C103.486 133.19 105.832 133.42 107.672 133.88C109.543 134.34 110.999 134.984 112.042 135.812C113.115 136.64 113.851 137.637 114.25 138.802C114.679 139.937 114.894 141.209 114.894 142.62V158.306ZM96.7702 156.65C96.7702 157.263 97.0002 157.785 97.4602 158.214C97.9202 158.613 98.9782 158.812 100.634 158.812C102.29 158.812 103.348 158.613 103.808 158.214C104.268 157.785 104.498 157.263 104.498 156.65V144.276C104.498 143.693 104.268 143.203 103.808 142.804C103.348 142.375 102.29 142.16 100.634 142.16C98.9782 142.16 97.9202 142.375 97.4602 142.804C97.0002 143.203 96.7702 143.693 96.7702 144.276V156.65ZM137.908 167H122.406C121.824 167 121.394 166.877 121.118 166.632C120.873 166.356 120.75 165.927 120.75 165.344V135.536C120.75 134.953 120.873 134.539 121.118 134.294C121.394 134.018 121.824 133.88 122.406 133.88H137.908C141.742 133.88 144.578 134.647 146.418 136.18C148.289 137.713 149.224 140.075 149.224 143.264V157.616C149.224 160.805 148.289 163.167 146.418 164.7C144.578 166.233 141.742 167 137.908 167ZM131.192 142.666V158.306H136.666C137.402 158.306 137.939 158.122 138.276 157.754C138.644 157.386 138.828 156.819 138.828 156.052V144.874C138.828 144.107 138.644 143.555 138.276 143.218C137.939 142.85 137.402 142.666 136.666 142.666H131.192ZM172.228 167H156.726C156.144 167 155.714 166.877 155.438 166.632C155.193 166.356 155.07 165.927 155.07 165.344V135.536C155.07 134.953 155.193 134.539 155.438 134.294C155.714 134.018 156.144 133.88 156.726 133.88H172.228C176.062 133.88 178.898 134.647 180.738 136.18C182.609 137.713 183.544 140.075 183.544 143.264V157.616C183.544 160.805 182.609 163.167 180.738 164.7C178.898 166.233 176.062 167 172.228 167ZM165.512 142.666V158.306H170.986C171.722 158.306 172.259 158.122 172.596 157.754C172.964 157.386 173.148 156.819 173.148 156.052V144.874C173.148 144.107 172.964 143.555 172.596 143.218C172.259 142.85 171.722 142.666 170.986 142.666H165.512ZM190.311 167C189.728 167 189.299 166.877 189.023 166.632C188.777 166.356 188.655 165.927 188.655 165.344V159.87C188.655 159.287 188.777 158.873 189.023 158.628C189.299 158.352 189.728 158.214 190.311 158.214H194.865V142.758H190.311C189.728 142.758 189.299 142.635 189.023 142.39C188.777 142.114 188.655 141.685 188.655 141.102V135.536C188.655 134.953 188.777 134.539 189.023 134.294C189.299 134.018 189.728 133.88 190.311 133.88H209.907C210.489 133.88 210.903 134.018 211.149 134.294C211.425 134.539 211.563 134.953 211.563 135.536V141.102C211.563 141.685 211.425 142.114 211.149 142.39C210.903 142.635 210.489 142.758 209.907 142.758H205.445V158.214H209.907C210.489 158.214 210.903 158.352 211.149 158.628C211.425 158.873 211.563 159.287 211.563 159.87V165.344C211.563 165.927 211.425 166.356 211.149 166.632C210.903 166.877 210.489 167 209.907 167H190.311ZM232.882 167H225.43C224.848 167 224.418 166.877 224.142 166.632C223.897 166.356 223.774 165.927 223.774 165.344V142.758H217.012C216.43 142.758 216 142.635 215.724 142.39C215.479 142.114 215.356 141.685 215.356 141.102V135.536C215.356 134.953 215.479 134.539 215.724 134.294C216 134.018 216.43 133.88 217.012 133.88H241.3C241.883 133.88 242.297 134.018 242.542 134.294C242.818 134.539 242.956 134.953 242.956 135.536V141.102C242.956 141.685 242.818 142.114 242.542 142.39C242.297 142.635 241.883 142.758 241.3 142.758H234.538V165.344C234.538 165.927 234.4 166.356 234.124 166.632C233.879 166.877 233.465 167 232.882 167Z" fill="white"/>
</svg>
