<svg width="364" height="364" viewBox="0 0 364 364" fill="none" xmlns="http://www.w3.org/2000/svg">
<rect width="363.787" height="363.787" rx="181.894" fill="white"/>
<path d="M91.6807 192.657H80.4567C76.6233 192.657 73.7713 191.891 71.9007 190.357C70.0607 188.824 69.1407 186.463 69.1407 183.273V168.967C69.1407 165.778 70.0607 163.417 71.9007 161.883C73.7713 160.319 76.6233 159.537 80.4567 159.537H91.6807C92.2633 159.537 92.6773 159.675 92.9227 159.951C93.1987 160.197 93.3367 160.611 93.3367 161.193V166.759C93.3367 167.342 93.1987 167.771 92.9227 168.047C92.6773 168.293 92.2633 168.415 91.6807 168.415H82.4347C81.484 168.415 80.7787 168.615 80.3187 169.013C79.8587 169.381 79.6287 169.949 79.6287 170.715V181.663C79.6287 182.43 79.8587 182.997 80.3187 183.365C80.7787 183.703 81.484 183.871 82.4347 183.871H91.6807C92.2633 183.871 92.6773 184.009 92.9227 184.285C93.1987 184.531 93.3367 184.945 93.3367 185.527V191.001C93.3367 191.584 93.1987 192.013 92.9227 192.289C92.6773 192.535 92.2633 192.657 91.6807 192.657ZM126.367 183.963C126.367 185.374 126.152 186.662 125.723 187.827C125.324 188.962 124.588 189.943 123.515 190.771C122.472 191.569 121.015 192.197 119.145 192.657C117.305 193.117 114.959 193.347 112.107 193.347C109.255 193.347 106.893 193.117 105.023 192.657C103.152 192.197 101.68 191.569 100.607 190.771C99.5641 189.943 98.8281 188.962 98.3988 187.827C98.0001 186.662 97.8008 185.374 97.8008 183.963V168.277C97.8008 166.867 98.0001 165.594 98.3988 164.459C98.8281 163.294 99.5641 162.297 100.607 161.469C101.68 160.641 103.152 159.997 105.023 159.537C106.893 159.077 109.255 158.847 112.107 158.847C114.959 158.847 117.305 159.077 119.145 159.537C121.015 159.997 122.472 160.641 123.515 161.469C124.588 162.297 125.324 163.294 125.723 164.459C126.152 165.594 126.367 166.867 126.367 168.277V183.963ZM108.243 182.307C108.243 182.921 108.473 183.442 108.933 183.871C109.393 184.27 110.451 184.469 112.107 184.469C113.763 184.469 114.821 184.27 115.281 183.871C115.741 183.442 115.971 182.921 115.971 182.307V169.933C115.971 169.351 115.741 168.86 115.281 168.461C114.821 168.032 113.763 167.817 112.107 167.817C110.451 167.817 109.393 168.032 108.933 168.461C108.473 168.86 108.243 169.351 108.243 169.933V182.307ZM149.381 192.657H133.879C133.296 192.657 132.867 192.535 132.591 192.289C132.345 192.013 132.223 191.584 132.223 191.001V161.193C132.223 160.611 132.345 160.197 132.591 159.951C132.867 159.675 133.296 159.537 133.879 159.537H149.381C153.214 159.537 156.051 160.304 157.891 161.837C159.761 163.371 160.697 165.732 160.697 168.921V183.273C160.697 186.463 159.761 188.824 157.891 190.357C156.051 191.891 153.214 192.657 149.381 192.657ZM142.665 168.323V183.963H148.139C148.875 183.963 149.411 183.779 149.749 183.411C150.117 183.043 150.301 182.476 150.301 181.709V170.531C150.301 169.765 150.117 169.213 149.749 168.875C149.411 168.507 148.875 168.323 148.139 168.323H142.665ZM183.701 192.657H168.199C167.616 192.657 167.187 192.535 166.911 192.289C166.666 192.013 166.543 191.584 166.543 191.001V161.193C166.543 160.611 166.666 160.197 166.911 159.951C167.187 159.675 167.616 159.537 168.199 159.537H183.701C187.534 159.537 190.371 160.304 192.211 161.837C194.082 163.371 195.017 165.732 195.017 168.921V183.273C195.017 186.463 194.082 188.824 192.211 190.357C190.371 191.891 187.534 192.657 183.701 192.657ZM176.985 168.323V183.963H182.459C183.195 183.963 183.732 183.779 184.069 183.411C184.437 183.043 184.621 182.476 184.621 181.709V170.531C184.621 169.765 184.437 169.213 184.069 168.875C183.732 168.507 183.195 168.323 182.459 168.323H176.985ZM201.783 192.657C201.201 192.657 200.771 192.535 200.495 192.289C200.25 192.013 200.127 191.584 200.127 191.001V185.527C200.127 184.945 200.25 184.531 200.495 184.285C200.771 184.009 201.201 183.871 201.783 183.871H206.337V168.415H201.783C201.201 168.415 200.771 168.293 200.495 168.047C200.25 167.771 200.127 167.342 200.127 166.759V161.193C200.127 160.611 200.25 160.197 200.495 159.951C200.771 159.675 201.201 159.537 201.783 159.537H221.379C221.962 159.537 222.376 159.675 222.621 159.951C222.897 160.197 223.035 160.611 223.035 161.193V166.759C223.035 167.342 222.897 167.771 222.621 168.047C222.376 168.293 221.962 168.415 221.379 168.415H216.917V183.871H221.379C221.962 183.871 222.376 184.009 222.621 184.285C222.897 184.531 223.035 184.945 223.035 185.527V191.001C223.035 191.584 222.897 192.013 222.621 192.289C222.376 192.535 221.962 192.657 221.379 192.657H201.783ZM244.355 192.657H236.903C236.32 192.657 235.891 192.535 235.615 192.289C235.37 192.013 235.247 191.584 235.247 191.001V168.415H228.485C227.902 168.415 227.473 168.293 227.197 168.047C226.952 167.771 226.829 167.342 226.829 166.759V161.193C226.829 160.611 226.952 160.197 227.197 159.951C227.473 159.675 227.902 159.537 228.485 159.537H252.773C253.356 159.537 253.77 159.675 254.015 159.951C254.291 160.197 254.429 160.611 254.429 161.193V166.759C254.429 167.342 254.291 167.771 254.015 168.047C253.77 168.293 253.356 168.415 252.773 168.415H246.011V191.001C246.011 191.584 245.873 192.013 245.597 192.289C245.352 192.535 244.938 192.657 244.355 192.657Z" fill="white"/>
<rect width="363.787" height="363.787" rx="181.894" fill="#021526"/>
<path d="M242.288 274.957H179.824C158.491 274.957 142.619 270.69 132.208 262.157C121.968 253.624 116.848 240.482 116.848 222.733V143.117C116.848 125.368 121.968 112.226 132.208 103.693C142.619 94.989 158.491 90.637 179.824 90.637H242.288C245.531 90.637 247.835 91.405 249.2 92.941C250.736 94.3064 251.504 96.6104 251.504 99.853V130.829C251.504 134.072 250.736 136.461 249.2 137.997C247.835 139.362 245.531 140.045 242.288 140.045H190.832C185.541 140.045 181.616 141.154 179.056 143.373C176.496 145.421 175.216 148.578 175.216 152.845V213.773C175.216 218.04 176.496 221.197 179.056 223.245C181.616 225.122 185.541 226.061 190.832 226.061H242.288C245.531 226.061 247.835 226.829 249.2 228.365C250.736 229.73 251.504 232.034 251.504 235.277V265.741C251.504 268.984 250.736 271.373 249.2 272.909C247.835 274.274 245.531 274.957 242.288 274.957Z" fill="white"/>
</svg>
