<svg width="364" height="364" viewBox="0 0 364 364" fill="none" xmlns="http://www.w3.org/2000/svg">
<rect y="0.0429688" width="363.787" height="363.787" rx="181.894" fill="#2F27CE"/>
<path d="M91.6807 192.7H80.4567C76.6233 192.7 73.7713 191.934 71.9007 190.4C70.0607 188.867 69.1407 186.506 69.1407 183.316V169.01C69.1407 165.821 70.0607 163.46 71.9007 161.926C73.7713 160.362 76.6233 159.58 80.4567 159.58H91.6807C92.2633 159.58 92.6773 159.718 92.9227 159.994C93.1987 160.24 93.3367 160.654 93.3367 161.236V166.802C93.3367 167.385 93.1987 167.814 92.9227 168.09C92.6773 168.336 92.2633 168.458 91.6807 168.458H82.4347C81.484 168.458 80.7787 168.658 80.3187 169.056C79.8587 169.424 79.6287 169.992 79.6287 170.758V181.706C79.6287 182.473 79.8587 183.04 80.3187 183.408C80.7787 183.746 81.484 183.914 82.4347 183.914H91.6807C92.2633 183.914 92.6773 184.052 92.9227 184.328C93.1987 184.574 93.3367 184.988 93.3367 185.57V191.044C93.3367 191.627 93.1987 192.056 92.9227 192.332C92.6773 192.578 92.2633 192.7 91.6807 192.7ZM126.367 184.006C126.367 185.417 126.152 186.705 125.723 187.87C125.324 189.005 124.588 189.986 123.515 190.814C122.472 191.612 121.015 192.24 119.145 192.7C117.305 193.16 114.959 193.39 112.107 193.39C109.255 193.39 106.893 193.16 105.023 192.7C103.152 192.24 101.68 191.612 100.607 190.814C99.5641 189.986 98.8281 189.005 98.3988 187.87C98.0001 186.705 97.8008 185.417 97.8008 184.006V168.32C97.8008 166.91 98.0001 165.637 98.3988 164.502C98.8281 163.337 99.5641 162.34 100.607 161.512C101.68 160.684 103.152 160.04 105.023 159.58C106.893 159.12 109.255 158.89 112.107 158.89C114.959 158.89 117.305 159.12 119.145 159.58C121.015 160.04 122.472 160.684 123.515 161.512C124.588 162.34 125.324 163.337 125.723 164.502C126.152 165.637 126.367 166.91 126.367 168.32V184.006ZM108.243 182.35C108.243 182.964 108.473 183.485 108.933 183.914C109.393 184.313 110.451 184.512 112.107 184.512C113.763 184.512 114.821 184.313 115.281 183.914C115.741 183.485 115.971 182.964 115.971 182.35V169.976C115.971 169.394 115.741 168.903 115.281 168.504C114.821 168.075 113.763 167.86 112.107 167.86C110.451 167.86 109.393 168.075 108.933 168.504C108.473 168.903 108.243 169.394 108.243 169.976V182.35ZM149.381 192.7H133.879C133.296 192.7 132.867 192.578 132.591 192.332C132.345 192.056 132.223 191.627 132.223 191.044V161.236C132.223 160.654 132.345 160.24 132.591 159.994C132.867 159.718 133.296 159.58 133.879 159.58H149.381C153.214 159.58 156.051 160.347 157.891 161.88C159.761 163.414 160.697 165.775 160.697 168.964V183.316C160.697 186.506 159.761 188.867 157.891 190.4C156.051 191.934 153.214 192.7 149.381 192.7ZM142.665 168.366V184.006H148.139C148.875 184.006 149.411 183.822 149.749 183.454C150.117 183.086 150.301 182.519 150.301 181.752V170.574C150.301 169.808 150.117 169.256 149.749 168.918C149.411 168.55 148.875 168.366 148.139 168.366H142.665ZM183.701 192.7H168.199C167.616 192.7 167.187 192.578 166.911 192.332C166.666 192.056 166.543 191.627 166.543 191.044V161.236C166.543 160.654 166.666 160.24 166.911 159.994C167.187 159.718 167.616 159.58 168.199 159.58H183.701C187.534 159.58 190.371 160.347 192.211 161.88C194.082 163.414 195.017 165.775 195.017 168.964V183.316C195.017 186.506 194.082 188.867 192.211 190.4C190.371 191.934 187.534 192.7 183.701 192.7ZM176.985 168.366V184.006H182.459C183.195 184.006 183.732 183.822 184.069 183.454C184.437 183.086 184.621 182.519 184.621 181.752V170.574C184.621 169.808 184.437 169.256 184.069 168.918C183.732 168.55 183.195 168.366 182.459 168.366H176.985ZM201.783 192.7C201.201 192.7 200.771 192.578 200.495 192.332C200.25 192.056 200.127 191.627 200.127 191.044V185.57C200.127 184.988 200.25 184.574 200.495 184.328C200.771 184.052 201.201 183.914 201.783 183.914H206.337V168.458H201.783C201.201 168.458 200.771 168.336 200.495 168.09C200.25 167.814 200.127 167.385 200.127 166.802V161.236C200.127 160.654 200.25 160.24 200.495 159.994C200.771 159.718 201.201 159.58 201.783 159.58H221.379C221.962 159.58 222.376 159.718 222.621 159.994C222.897 160.24 223.035 160.654 223.035 161.236V166.802C223.035 167.385 222.897 167.814 222.621 168.09C222.376 168.336 221.962 168.458 221.379 168.458H216.917V183.914H221.379C221.962 183.914 222.376 184.052 222.621 184.328C222.897 184.574 223.035 184.988 223.035 185.57V191.044C223.035 191.627 222.897 192.056 222.621 192.332C222.376 192.578 221.962 192.7 221.379 192.7H201.783ZM244.355 192.7H236.903C236.32 192.7 235.891 192.578 235.615 192.332C235.37 192.056 235.247 191.627 235.247 191.044V168.458H228.485C227.902 168.458 227.473 168.336 227.197 168.09C226.952 167.814 226.829 167.385 226.829 166.802V161.236C226.829 160.654 226.952 160.24 227.197 159.994C227.473 159.718 227.902 159.58 228.485 159.58H252.773C253.356 159.58 253.77 159.718 254.015 159.994C254.291 160.24 254.429 160.654 254.429 161.236V166.802C254.429 167.385 254.291 167.814 254.015 168.09C253.77 168.336 253.356 168.458 252.773 168.458H246.011V191.044C246.011 191.627 245.873 192.056 245.597 192.332C245.352 192.578 244.938 192.7 244.355 192.7Z" fill="white"/>
<rect y="0.0429688" width="363.787" height="363.787" rx="181.894" fill="#2F27CE"/>
<path d="M242.288 275H179.824C158.491 275 142.619 270.733 132.208 262.2C121.968 253.667 116.848 240.525 116.848 222.776V143.16C116.848 125.411 121.968 112.269 132.208 103.736C142.619 95.032 158.491 90.68 179.824 90.68H242.288C245.531 90.68 247.835 91.448 249.2 92.984C250.736 94.3493 251.504 96.6533 251.504 99.896V130.872C251.504 134.115 250.736 136.504 249.2 138.04C247.835 139.405 245.531 140.088 242.288 140.088H190.832C185.541 140.088 181.616 141.197 179.056 143.416C176.496 145.464 175.216 148.621 175.216 152.888V213.816C175.216 218.083 176.496 221.24 179.056 223.288C181.616 225.165 185.541 226.104 190.832 226.104H242.288C245.531 226.104 247.835 226.872 249.2 228.408C250.736 229.773 251.504 232.077 251.504 235.32V265.784C251.504 269.027 250.736 271.416 249.2 272.952C247.835 274.317 245.531 275 242.288 275Z" fill="white"/>
</svg>
