<svg xmlns="http://www.w3.org/2000/svg" width="430" height="430" fill="none" viewBox="0 0 430 430"><g stroke-linecap="round" stroke-linejoin="round" stroke-miterlimit="16" stroke-width="12"><path stroke="#dedcff" d="M215 68.7V38m0 30.7V38M68.7 215H38m177 146.3V392m146.3-177H392M215 68.7V38m0-3c99.3 0 180 80.7 180 180s-80.7 180-180 180S35 314.3 35 215 115.7 35 215 35m0 0c99.3 0 180 80.7 180 180s-80.7 180-180 180S35 314.3 35 215 115.7 35 215 35"/><path stroke="#2f27ce" d="M215 215v-47.5m0 47.5v-47.5m0 47.5h-47.5m47.5 0v47.5m0-47.5h47.5m-47.5 0v-47.5"/></g></svg>